# xmcd
#
# Track frame offsets: 
#        150
#        20380
#        29222
#        38885
#        51407
#        70435
#        83470
#        93400
#        103387
#        114365
#        126970
#        130820
#        148775
#        158902
#        184867
#        198417
#        210140
#        224937
#        237447
#        250645
#
# Disc length: 3468 seconds
#
# Revision: 3
# Processed by: cddbd v1.5.1PL2 Copyright (c) Steve Scherf et al.
# Submitted via: ExactAudioCopy v0.95b4
#
DISCID=2d0d8a14
DTITLE=Various Artist - Country Gold Vol.3
DYEAR=1996
DGENRE=Country
TTITLE0=Gram Parsons and Emmylou Harris - Love Hurts
TTITLE1=Sandy Posey - Born A Woman
TTITLE2=Dave Dudley - Cowboy Boots
TTITLE3=Freddy Fender - Silver Wings
TTITLE4=Dave Travis - Sweet Country Music
TTITLE5=Donna Fargo - Daddy
TTITLE6=Barbara Mandrell - Kaw-Liga (Live)
TTITLE7=Buck Owens - Rhythm And Booze
TTITLE8=Carl Perkins - Dixie Friend
TTITLE9=Ketty Wells - Making Believe
TTITLE10=Charley Pride - Is Anybody Goin' To San Antone
TTITLE11=Ricky Nelson - Garden Party
TTITLE12=B.J. Thomas - Walkin' Back
TTITLE13=Medley: - Jambalaya - Is It True? - My Whole World Is Falling D
TTITLE13=own - Sweet Nothin's - The End Of The World - Al Aone Am I
TTITLE14=Freddy Fender - Baby I Want To Love You
TTITLE15=Don David Jr. - Country Kings
TTITLE16=Billie Jo Spears - Crystal Chandeliers
TTITLE17=Johnny Paycheck - Georgia In A Jug
TTITLE18=Roy Acuff - Tennessee Waltz
TTITLE19=Ned Miller - From A Jack To A King
EXTD=
EXTT0=Gram Parsons and Emmylou Harris\n
EXTT1=Sandy Posey\n
EXTT2=Dave Dudley\n
EXTT3=Freddy Fender\n
EXTT4=Dave Travis\n
EXTT5=Donna Fargo\n
EXTT6=Barbara Mandrel\n
EXTT7=Buck Owens\n
EXTT8=Carl Perkins\n
EXTT9=Kitty Wells\n
EXTT10=Charlez Pride\n
EXTT11=Ricky Nelson\n
EXTT12=B.J.Thomas\n
EXTT13=Medley\n
EXTT14=Freddy Fender\n
EXTT15=Don David Jr.\n
EXTT16=Billie To Spears\n
EXTT17=Johnny Paycheck\n
EXTT18=Roy Acuff\n
EXTT19=Ned Miller\n
PLAYORDER=
